<?xml version="1.0" encoding="UTF-8"?>
<!DOCTYPE svg PUBLIC "-//W3C//DTD SVG 1.1//EN" "http://www.w3.org/Graphics/SVG/1.1/DTD/svg11.dtd">
<svg xmlns="http://www.w3.org/2000/svg" version="1.1" width="25px" height="25px" style="shape-rendering:geometricPrecision; text-rendering:geometricPrecision; image-rendering:optimizeQuality; fill-rule:evenodd; clip-rule:evenodd" xmlns:xlink="http://www.w3.org/1999/xlink">
<g><path style="opacity:1" fill="#fbfcf9" d="M -0.5,-0.5 C 7.83333,-0.5 16.1667,-0.5 24.5,-0.5C 24.5,7.83333 24.5,16.1667 24.5,24.5C 16.1667,24.5 7.83333,24.5 -0.5,24.5C -0.5,16.1667 -0.5,7.83333 -0.5,-0.5 Z"/></g>
<g><path style="opacity:1" fill="#f8ca43" d="M 12.5,1.5 C 20.8333,-0.166667 24.1667,3.16667 22.5,11.5C 14.1667,13.1667 10.8333,9.83333 12.5,1.5 Z"/></g>
<g><path style="opacity:1" fill="#4b8848" d="M 9.5,23.5 C 7.34865,16.5448 4.68198,9.87809 1.5,3.5C 1.61071,2.88258 1.94404,2.38258 2.5,2C 5.48162,1.50204 8.48162,1.33537 11.5,1.5C 12.1299,9.24283 11.4633,16.5762 9.5,23.5 Z"/></g>
<g><path style="opacity:1" fill="#74ac3f" d="M 15.5,13.5 C 17.8333,13.5 20.1667,13.5 22.5,13.5C 22.5,15.1667 22.5,16.8333 22.5,18.5C 19.3257,17.9898 16.9923,16.3231 15.5,13.5 Z"/></g>
<g><path style="opacity:1" fill="#79ac4f" d="M 1.5,3.5 C 4.68198,9.87809 7.34865,16.5448 9.5,23.5C 7.14316,23.6633 4.80982,23.4966 2.5,23C 1.87424,22.2496 1.37424,21.4162 1,20.5C 0.215259,14.7507 0.381926,9.08402 1.5,3.5 Z"/></g>
<g><path style="opacity:1" fill="#408140" d="M 15.5,13.5 C 16.9923,16.3231 19.3257,17.9898 22.5,18.5C 22.7035,20.3904 22.0368,21.8904 20.5,23C 17.854,23.4974 15.1873,23.6641 12.5,23.5C 12.3359,20.8127 12.5026,18.146 13,15.5C 13.7083,14.6195 14.5416,13.9528 15.5,13.5 Z"/></g>
</svg>
